<svg xmlns="http://www.w3.org/2000/svg" viewBox="0 0 1919.11 711.31"><defs><style>.cls-1{fill:#ff6363;}.cls-2{fill:#b9d3f2;}.cls-3{fill:#a32f80;}</style></defs><g id="Layer_2" data-name="Layer 2"><g id="Layer_1-2" data-name="Layer 1"><path class="cls-1" d="M964.05,8.31V367.24a2.07,2.07,0,0,1-2.06,2.07h-2.87a2.07,2.07,0,0,1-2.07-2.07V8.31"/><path class="cls-2" d="M613.05,0V707.1c0,2.32-1.15,4.21-2.57,4.21h-3.57c-1.42,0-2.58-1.89-2.58-4.21V9.49"/><path class="cls-2" d="M286.05,3V417.84a2.52,2.52,0,0,1-2.57,2.47h-3.57a2.53,2.53,0,0,1-2.58-2.47V8.57"/><path class="cls-2" d="M7,2.71V470.46c0,1.57-.93,2.85-2.07,2.85H2.07C.93,473.31,0,472,0,470.46V9.14"/><path class="cls-2" d="M1333,4V260.78c0,.84,1.16,1.53,2.58,1.53h3.58c1.42,0,2.57-.69,2.57-1.53V7.47"/><path class="cls-2" d="M1659.05,3.31V545c0,1.82,1.07,3.3,2.38,3.3h3.3c1.31,0,2.38-1.48,2.38-3.3V10.75"/><path class="cls-2" d="M1912.11,2.71V342a2.07,2.07,0,0,0,2.06,2.07H1917a2.07,2.07,0,0,0,2.07-2.07V7.37"/><path class="cls-3" d="M1511,3.39l1.34,35a2.28,2.28,0,0,0,2.52,2l3.4-.13a2.29,2.29,0,0,0,2.37-2.16l-1.16-30.38"/><path class="cls-3" d="M1800,8.31l2.31,3.45a2.06,2.06,0,0,0,2.86.58l2.39-1.59a2.06,2.06,0,0,0,.57-2.87"/><rect class="cls-3" x="1170.05" y="73.31" width="7" height="100" rx="2.07"/><rect class="cls-3" x="1170.05" y="304.31" width="7" height="72" rx="2.07"/><rect class="cls-3" x="1170.05" y="191.31" width="7" height="42" rx="2.07"/><rect class="cls-3" x="1170.05" y="397.31" width="7" height="42" rx="2.07"/><rect class="cls-3" x="1170.05" y="25.31" width="7" height="21" rx="2.07"/><rect class="cls-3" x="1170.05" y="53.31" width="7" height="7" rx="2.07"/><rect class="cls-3" x="1170.05" y="276.31" width="7" height="7" rx="2.07"/><rect class="cls-3" x="1170.05" y="251.31" width="7" height="7" rx="2.07"/><rect class="cls-3" x="133.05" y="280.81" width="7" height="94.93" rx="2.07"/><rect class="cls-3" x="133.05" y="88.11" width="7" height="68.35" rx="2.07"/><rect class="cls-3" x="133.05" y="223.86" width="7" height="39.87" rx="2.07"/><rect class="cls-3" x="133.05" y="28.31" width="7" height="39.87" rx="2.07"/><rect class="cls-3" x="133.05" y="401.37" width="7" height="19.93" rx="2.07"/><rect class="cls-3" x="133.05" y="388.08" width="7" height="6.64" rx="2.07"/><rect class="cls-3" x="133.05" y="176.39" width="7" height="6.64" rx="2.07"/><rect class="cls-3" x="133.05" y="200.13" width="7" height="6.64" rx="2.07"/><rect class="cls-3" x="404.05" y="26.31" width="7" height="113.28" rx="2.07"/><rect class="cls-3" x="404.05" y="396.74" width="7" height="81.56" rx="2.07"/><rect class="cls-3" x="404.05" y="258.54" width="7" height="47.58" rx="2.07"/><rect class="cls-3" x="404.05" y="173.57" width="7" height="23.79" rx="2.07"/><rect class="cls-3" x="404.05" y="336.7" width="7" height="7.93" rx="2.07"/><rect class="cls-3" x="404.05" y="357.09" width="7" height="7.93" rx="2.07"/><rect class="cls-3" x="404.05" y="214.36" width="7" height="7.93" rx="2.07"/><rect class="cls-3" x="1512.05" y="332.82" width="7" height="93.48" rx="2.07"/><rect class="cls-3" x="1512.05" y="53.31" width="7" height="67.31" rx="2.07"/><rect class="cls-3" x="1512.05" y="195.4" width="7" height="39.26" rx="2.07"/><rect class="cls-3" x="1512.05" y="285.15" width="7" height="19.63" rx="2.07"/><rect class="cls-3" x="1512.05" y="163.62" width="7" height="6.54" rx="2.07"/><rect class="cls-3" x="1512.05" y="146.79" width="7" height="6.54" rx="2.07"/><rect class="cls-3" x="1512.05" y="264.58" width="7" height="6.54" rx="2.07"/><rect class="cls-3" x="774.05" y="353.31" width="7" height="100" rx="2.07"/><rect class="cls-3" x="774.05" y="206.31" width="7" height="72" rx="2.07"/><rect class="cls-3" x="774.05" y="38.31" width="7" height="72" rx="2.07"/><rect class="cls-3" x="774.05" y="140.31" width="7" height="42" rx="2.07"/><rect class="cls-3" x="774.05" y="300.31" width="7" height="21" rx="2.07"/><rect class="cls-3" x="774.05" y="475.31" width="7" height="7" rx="2.07"/><rect class="cls-3" x="774.05" y="120.31" width="7" height="7" rx="2.07"/><rect class="cls-3" x="1801.05" y="68.31" width="7" height="110.36" rx="2.07"/><rect class="cls-3" x="1801.05" y="261.44" width="7" height="79.46" rx="2.07"/><rect class="cls-3" x="1801.05" y="446.85" width="7" height="79.46" rx="2.07"/><rect class="cls-3" x="1801.05" y="367.39" width="7" height="46.35" rx="2.07"/><rect class="cls-3" x="1801.05" y="213.99" width="7" height="23.18" rx="2.07"/><rect class="cls-3" x="1801.05" y="36.31" width="7" height="7.73" rx="2.07"/><rect class="cls-3" x="1801.05" y="428.09" width="7" height="7.73" rx="2.07"/></g></g></svg>