<svg xmlns="http://www.w3.org/2000/svg" xmlns:xlink="http://www.w3.org/1999/xlink" viewBox="0 0 1921.77 1397.62"><defs><style>.cls-1{fill:none;}.cls-2{clip-path:url(#clip-path);}.cls-3{fill:#ff6363;}.cls-4{fill:#b9d3f2;}.cls-5{fill:#a32f80;}</style><clipPath id="clip-path" transform="translate(1.38 315)"><rect class="cls-1" width="1921" height="1079"/></clipPath></defs><g id="Layer_2" data-name="Layer 2"><g id="Layer_1-2" data-name="Layer 1"><g class="cls-2"><rect class="cls-3" x="31.38" y="262" width="7" height="386" rx="2.07"/><rect class="cls-4" x="291.38" y="117" width="7" height="386" rx="2.07"/><rect class="cls-3" x="541.38" y="207" width="7" height="475" rx="2.07"/><rect class="cls-4" x="791.38" y="121" width="7" height="475" rx="2.07"/><rect class="cls-3" x="1051.38" width="7" height="475" rx="2.07"/><path class="cls-3" d="M957,1080V968.07a2.07,2.07,0,0,1,2.07-2.07h2.86a2.07,2.07,0,0,1,2.07,2.07V1080" transform="translate(1.38 315)"/><path class="cls-4" d="M604.28,1080l70.88-106.35a2.08,2.08,0,0,1,2.87-.57l2.39,1.59a2.07,2.07,0,0,1,.57,2.87L612.69,1080" transform="translate(1.38 315)"/><path class="cls-4" d="M277.28,1080l70.88-106.35a2.08,2.08,0,0,1,2.87-.57l2.39,1.59a2.07,2.07,0,0,1,.57,2.87L285.69,1080" transform="translate(1.38 315)"/><path class="cls-4" d="M-1.38,1080,74.16,966.65a2.08,2.08,0,0,1,2.87-.57l2.39,1.59a2.07,2.07,0,0,1,.57,2.87L7,1080" transform="translate(1.38 315)"/><path class="cls-4" d="M1341.72,1080l-70.88-106.35a2.08,2.08,0,0,0-2.87-.57l-2.39,1.59a2.07,2.07,0,0,0-.57,2.87l68.3,102.46" transform="translate(1.38 315)"/><path class="cls-4" d="M1667.38,1080l-75.54-113.35a2.08,2.08,0,0,0-2.87-.57l-2.39,1.59a2.07,2.07,0,0,0-.57,2.87L1659,1080" transform="translate(1.38 315)"/><path class="cls-4" d="M1920.38,1079l-75.54-113.35a2.08,2.08,0,0,0-2.87-.57l-2.39,1.59a2.07,2.07,0,0,0-.57,2.87L1912,1079" transform="translate(1.38 315)"/><rect class="cls-3" x="1531.38" y="155" width="7" height="475" rx="2.07"/><rect class="cls-4" x="1771.38" y="61" width="7" height="475" rx="2.07"/><rect class="cls-5" x="921.38" y="682" width="7" height="100" rx="2.07"/><rect class="cls-5" x="921.38" y="328" width="7" height="100" rx="2.07"/><rect class="cls-5" x="416.38" y="375" width="7" height="100" rx="2.07"/><rect class="cls-5" x="161.38" y="414" width="7" height="100" rx="2.07"/><rect class="cls-5" x="161.38" y="294" width="7" height="100" rx="2.07"/><rect class="cls-5" x="1171.38" y="464" width="7" height="100" rx="2.07"/><rect class="cls-5" x="1411.38" y="647" width="7" height="100" rx="2.07"/><rect class="cls-5" x="1906.38" y="405" width="7" height="100" rx="2.07"/><rect class="cls-5" x="1651.38" y="289" width="7" height="100" rx="2.07"/><path class="cls-5" d="M407.29,1080l12.12-18.18a2.06,2.06,0,0,1,2.86-.57l2.39,1.59a2.06,2.06,0,0,1,.57,2.87L415.7,1080" transform="translate(1.38 315)"/><rect class="cls-5" x="666.38" y="606" width="7" height="72" rx="2.07"/><rect class="cls-5" x="416.38" y="606" width="7" height="72" rx="2.07"/><rect class="cls-5" x="161.38" y="616" width="7" height="72" rx="2.07"/><rect class="cls-5" x="666.38" y="293" width="7" height="72" rx="2.07"/><rect class="cls-5" x="921.38" y="545" width="7" height="72" rx="2.07"/><rect class="cls-5" x="1171.38" y="586" width="7" height="72" rx="2.07"/><rect class="cls-5" x="1411.38" y="500" width="7" height="72" rx="2.07"/><rect class="cls-5" x="1411.38" y="332" width="7" height="72" rx="2.07"/><rect class="cls-5" x="1906.38" y="267" width="7" height="72" rx="2.07"/><rect class="cls-5" x="1651.38" y="616" width="7" height="72" rx="2.07"/><rect class="cls-5" x="440" y="1010" width="7" height="42" rx="2.07" transform="translate(647.67 242.13) rotate(33.68)"/><rect class="cls-5" x="788" y="1042" width="7" height="42" rx="2.07" transform="translate(723.84 54.49) rotate(33.68)"/><rect class="cls-5" x="666.38" y="514" width="7" height="42" rx="2.07"/><rect class="cls-5" x="416.38" y="493" width="7" height="42" rx="2.07"/><rect class="cls-5" x="416.38" y="699" width="7" height="42" rx="2.07"/><rect class="cls-5" x="1171.38" y="400" width="7" height="42" rx="2.07"/><rect class="cls-5" x="1411.38" y="434" width="7" height="42" rx="2.07"/><rect class="cls-5" x="1411.38" y="280" width="7" height="42" rx="2.07"/><rect class="cls-5" x="1906.38" y="563" width="7" height="42" rx="2.07"/><rect class="cls-5" x="1651.38" y="494" width="7" height="42" rx="2.07"/><rect class="cls-5" x="461" y="990" width="7" height="21" rx="2.07" transform="translate(634.28 225.36) rotate(33.68)"/><path class="cls-5" d="M134,1080l8.3-12.46a2.07,2.07,0,0,1,2.87-.57l2.39,1.59a2.06,2.06,0,0,1,.57,2.86l-5.72,8.58" transform="translate(1.38 315)"/><rect class="cls-5" x="169" y="1021" width="7" height="21" rx="2.07" transform="translate(602.44 392.52) rotate(33.68)"/><rect class="cls-5" x="200" y="974" width="7" height="21" rx="2.07" transform="matrix(0.83, 0.55, -0.55, 0.83, 581.58, 367.43)"/><rect class="cls-5" x="818" y="1009" width="7" height="21" rx="2.07" transform="translate(704.75 30.55) rotate(33.68)"/><rect class="cls-5" x="666.38" y="465" width="7" height="21" rx="2.07"/><rect class="cls-5" x="161.38" y="534" width="7" height="21" rx="2.07"/><rect class="cls-5" x="921.38" y="808" width="7" height="21" rx="2.07"/><rect class="cls-5" x="921.38" y="454" width="7" height="21" rx="2.07"/><rect class="cls-5" x="416.38" y="327" width="7" height="21" rx="2.07"/><rect class="cls-5" x="1232.38" y="213" width="7" height="21" rx="2.07"/><rect class="cls-5" x="921.38" y="642" width="7" height="21" rx="2.07"/><rect class="cls-5" x="1171.38" y="357" width="7" height="21" rx="2.07"/><rect class="cls-5" x="1411.38" y="594" width="7" height="21" rx="2.07"/><rect class="cls-5" x="1905.38" y="357" width="7" height="21" rx="2.07"/><rect class="cls-5" x="1651.38" y="419" width="7" height="21" rx="2.07"/><rect class="cls-5" x="156" y="1047" width="7" height="7" rx="2.07" transform="translate(610.8 402.92) rotate(33.68)"/><rect class="cls-5" x="148" y="1057" width="7" height="7" rx="2.07" transform="translate(615 409.03) rotate(33.68)"/><rect class="cls-5" x="806" y="1034" width="7" height="7" rx="2.07" transform="translate(712.72 40.23) rotate(33.68)"/><rect class="cls-5" x="424" y="1052" width="7" height="7" rx="2.07" transform="translate(658.57 255.12) rotate(33.68)"/><rect class="cls-5" x="472" y="981" width="7" height="7" rx="2.07" transform="translate(627.25 216.57) rotate(33.68)"/><path class="cls-5" d="M1519.35,1080l-20.78-31.18a2.07,2.07,0,0,0-2.87-.57l-2.38,1.59a2.07,2.07,0,0,0-.58,2.87l18.19,27.29" transform="translate(1.38 315)"/><rect class="cls-5" x="1470.97" y="997" width="7" height="42" rx="2.07" transform="translate(3267.38 1362.3) rotate(146.32)"/><rect class="cls-5" x="1450.97" y="977" width="7" height="21" rx="2.07" transform="matrix(-0.83, 0.55, -0.55, -0.83, 3213.82, 1317.51)"/><rect class="cls-5" x="1486.97" y="1039" width="7" height="7" rx="2.07" transform="translate(3310.28 1398.31) rotate(146.32)"/><rect class="cls-5" x="1441.97" y="969" width="7" height="7" rx="2.07" transform="translate(3189.01 1295.02) rotate(146.32)"/><rect class="cls-5" x="838" y="986" width="7" height="7" rx="2.07" transform="translate(691.47 14.42) rotate(33.68)"/><rect class="cls-5" x="830" y="998" width="7" height="7" rx="2.07" transform="translate(696.79 20.87) rotate(33.68)"/><rect class="cls-5" x="1158.29" y="1043" width="7" height="42" rx="2.07" transform="translate(2720.03 1619.99) rotate(146.32)"/><rect class="cls-5" x="1128.29" y="1010" width="7" height="21" rx="2.07" transform="translate(2640.94 1556.94) rotate(146.32)"/><rect class="cls-5" x="1140.29" y="1035" width="7" height="7" rx="2.07" transform="translate(2672.91 1583.26) rotate(146.32)"/><rect class="cls-5" x="1108.29" y="987" width="7" height="7" rx="2.07" transform="translate(2587.66 1513.07) rotate(146.32)"/><rect class="cls-5" x="1116.29" y="999" width="7" height="7" rx="2.07" transform="translate(2608.97 1530.61) rotate(146.32)"/><rect class="cls-5" x="189" y="998" width="7" height="7" rx="2.07" transform="translate(589.16 376.39) rotate(33.68)"/><rect class="cls-5" x="179" y="1013" width="7" height="7" rx="2.07" transform="translate(595.8 384.45) rotate(33.68)"/><path class="cls-5" d="M1808.09,1080.58l-9.35-14a2.07,2.07,0,0,0-2.87-.57l-2.39,1.59a2.06,2.06,0,0,0-.57,2.86l7,10.58" transform="translate(1.38 315)"/><rect class="cls-5" x="1765" y="1019" width="7" height="21" rx="2.07" transform="matrix(-0.83, 0.55, -0.55, -0.83, 3812.44, 1220.29)"/><rect class="cls-5" x="1734" y="972" width="7" height="21" rx="2.07" transform="translate(3729.58 1151.38) rotate(146.32)"/><rect class="cls-5" x="1774" y="1039" width="7" height="7" rx="2.07" transform="translate(3836.14 1239.12) rotate(146.32)"/><rect class="cls-5" x="1787" y="1058" width="7" height="7" rx="2.07" transform="translate(3870.49 1266.72) rotate(146.32)"/><rect class="cls-5" x="1745" y="996" width="7" height="7" rx="2.07" transform="translate(3759.16 1176.42) rotate(146.32)"/><rect class="cls-5" x="1755" y="1011" width="7" height="7" rx="2.07" transform="matrix(-0.83, 0.55, -0.55, -0.83, 3785.8, 1198.36)"/><rect class="cls-5" x="1781" y="1049" width="7" height="7" rx="2.07" transform="translate(3854.51 1253.56) rotate(146.32)"/><rect class="cls-5" x="666.38" y="411" width="7" height="7" rx="2.07"/><rect class="cls-5" x="416.38" y="355" width="7" height="7" rx="2.07"/><rect class="cls-5" x="666.38" y="438" width="7" height="7" rx="2.07"/><rect class="cls-5" x="416.38" y="578" width="7" height="7" rx="2.07"/><rect class="cls-5" x="416.38" y="553" width="7" height="7" rx="2.07"/><rect class="cls-5" x="161.38" y="571" width="7" height="7" rx="2.07"/><rect class="cls-5" x="666.38" y="574" width="7" height="7" rx="2.07"/><rect class="cls-5" x="666.38" y="389" width="7" height="7" rx="2.07"/><rect class="cls-5" x="921.38" y="521" width="7" height="7" rx="2.07"/><rect class="cls-5" x="921.38" y="497" width="7" height="7" rx="2.07"/><rect class="cls-5" x="1171.38" y="679" width="7" height="7" rx="2.07"/><rect class="cls-5" x="1171.38" y="329" width="7" height="7" rx="2.07"/><rect class="cls-5" x="1411.38" y="769" width="7" height="7" rx="2.07"/><rect class="cls-5" x="1906.38" y="525" width="7" height="7" rx="2.07"/><rect class="cls-5" x="1651.38" y="563" width="7" height="7" rx="2.07"/><rect class="cls-5" x="1651.38" y="581" width="7" height="7" rx="2.07"/><rect class="cls-5" x="1651.38" y="455" width="7" height="7" rx="2.07"/><rect class="cls-5" x="1411.38" y="414" width="7" height="7" rx="2.07"/></g></g></g></svg>